<svg width="256" height="105" viewBox="0 0 256 105" fill="none" xmlns="http://www.w3.org/2000/svg">
<rect width="256" height="105" fill="white"/>
<path d="M200.776 68.7244L198.592 69.3423C198.455 68.9785 198.253 68.6249 197.985 68.2816C197.724 67.9315 197.367 67.6431 196.914 67.4165C196.461 67.19 195.881 67.0767 195.173 67.0767C194.205 67.0767 193.399 67.2998 192.753 67.7461C192.115 68.1855 191.796 68.745 191.796 69.4247C191.796 70.0289 192.015 70.506 192.455 70.8562C192.894 71.2063 193.581 71.4981 194.514 71.7315L196.862 72.3082C198.277 72.6515 199.33 73.1767 200.024 73.8839C200.717 74.5842 201.064 75.487 201.064 76.5923C201.064 77.4986 200.803 78.3087 200.281 79.0227C199.766 79.7367 199.046 80.2997 198.119 80.7116C197.192 81.1236 196.114 81.3295 194.885 81.3295C193.272 81.3295 191.936 80.9794 190.879 80.2791C189.822 79.5788 189.152 78.5559 188.871 77.2102L191.178 76.6335C191.397 77.4848 191.813 78.1233 192.424 78.549C193.042 78.9747 193.848 79.1875 194.844 79.1875C195.977 79.1875 196.876 78.9472 197.542 78.4666C198.215 77.9792 198.551 77.3956 198.551 76.7159C198.551 76.1667 198.359 75.7067 197.975 75.3359C197.59 74.9583 197 74.6768 196.203 74.4915L193.567 73.8736C192.118 73.5303 191.054 72.9982 190.374 72.2773C189.702 71.5496 189.365 70.6399 189.365 69.5483C189.365 68.6558 189.616 67.8662 190.117 67.1797C190.625 66.4931 191.315 65.9542 192.187 65.5629C193.066 65.1715 194.061 64.9759 195.173 64.9759C196.739 64.9759 197.968 65.3191 198.86 66.0057C199.76 66.6922 200.398 67.5985 200.776 68.7244Z" fill="black"/>
<path d="M175.038 71.4844V81H172.607V65.1818H174.955V67.6534H175.161C175.532 66.8501 176.095 66.2048 176.85 65.7173C177.605 65.223 178.58 64.9759 179.775 64.9759C180.846 64.9759 181.783 65.1956 182.586 65.6349C183.39 66.0675 184.014 66.7266 184.461 67.6122C184.907 68.491 185.13 69.6032 185.13 70.9489V81H182.7V71.1136C182.7 69.871 182.377 68.9029 181.732 68.2095C181.086 67.5092 180.201 67.1591 179.075 67.1591C178.299 67.1591 177.605 67.3273 176.994 67.6637C176.39 68.0001 175.913 68.491 175.563 69.1364C175.213 69.7817 175.038 70.5644 175.038 71.4844Z" fill="black"/>
<path d="M161.32 87.2614C160.146 87.2614 159.137 87.1103 158.293 86.8082C157.448 86.513 156.744 86.1217 156.181 85.6342C155.625 85.1536 155.183 84.6387 154.853 84.0895L156.789 82.7301C157.009 83.0185 157.287 83.348 157.623 83.7188C157.96 84.0964 158.42 84.4225 159.003 84.6971C159.594 84.9786 160.366 85.1193 161.32 85.1193C162.597 85.1193 163.651 84.8104 164.482 84.1925C165.313 83.5746 165.728 82.6065 165.728 81.2884V78.0753H165.522C165.344 78.3636 165.089 78.7206 164.76 79.1463C164.437 79.5651 163.97 79.9393 163.359 80.2688C162.755 80.5915 161.938 80.7528 160.908 80.7528C159.631 80.7528 158.485 80.4508 157.469 79.8466C156.46 79.2424 155.66 78.3636 155.069 77.2102C154.486 76.0568 154.194 74.6563 154.194 73.0085C154.194 71.3883 154.479 69.9774 155.049 68.7759C155.618 67.5676 156.411 66.6339 157.428 65.9748C158.444 65.3088 159.618 64.9759 160.95 64.9759C161.979 64.9759 162.796 65.1475 163.401 65.4908C164.012 65.8272 164.478 66.2116 164.801 66.6442C165.131 67.0698 165.385 67.42 165.563 67.6946H165.81V65.1818H168.158V81.4531C168.158 82.8125 167.849 83.9179 167.232 84.7692C166.621 85.6274 165.797 86.2556 164.76 86.6538C163.73 87.0588 162.584 87.2614 161.32 87.2614ZM161.238 78.5696C162.213 78.5696 163.037 78.3465 163.71 77.9002C164.382 77.454 164.894 76.812 165.244 75.9744C165.594 75.1368 165.769 74.1345 165.769 72.9673C165.769 71.8277 165.598 70.8219 165.254 69.9499C164.911 69.078 164.403 68.3949 163.73 67.9006C163.057 67.4063 162.227 67.1591 161.238 67.1591C160.208 67.1591 159.35 67.42 158.663 67.9418C157.984 68.4635 157.472 69.1638 157.129 70.0426C156.792 70.9214 156.624 71.8963 156.624 72.9673C156.624 74.0658 156.796 75.0373 157.139 75.8817C157.489 76.7193 158.004 77.3784 158.684 77.859C159.371 78.3327 160.222 78.5696 161.238 78.5696Z" fill="black"/>
<path d="M148.054 81V65.1818H150.484V81H148.054ZM149.289 62.5455C148.816 62.5455 148.407 62.3841 148.064 62.0614C147.727 61.7388 147.559 61.3509 147.559 60.8977C147.559 60.4446 147.727 60.0567 148.064 59.734C148.407 59.4113 148.816 59.25 149.289 59.25C149.763 59.25 150.168 59.4113 150.505 59.734C150.848 60.0567 151.019 60.4446 151.019 60.8977C151.019 61.3509 150.848 61.7388 150.505 62.0614C150.168 62.3841 149.763 62.5455 149.289 62.5455Z" fill="black"/>
<path d="M144.107 68.7244L141.923 69.3423C141.786 68.9785 141.584 68.6249 141.316 68.2816C141.055 67.9315 140.698 67.6431 140.245 67.4165C139.792 67.19 139.212 67.0767 138.504 67.0767C137.536 67.0767 136.73 67.2998 136.084 67.7461C135.446 68.1855 135.127 68.745 135.127 69.4247C135.127 70.0289 135.346 70.506 135.786 70.8562C136.225 71.2063 136.912 71.4981 137.845 71.7315L140.193 72.3082C141.608 72.6515 142.662 73.1767 143.355 73.8839C144.048 74.5842 144.395 75.487 144.395 76.5923C144.395 77.4986 144.134 78.3087 143.612 79.0227C143.097 79.7367 142.377 80.2997 141.45 80.7116C140.523 81.1236 139.445 81.3295 138.216 81.3295C136.603 81.3295 135.267 80.9794 134.21 80.2791C133.153 79.5788 132.483 78.5559 132.202 77.2102L134.509 76.6335C134.728 77.4848 135.144 78.1233 135.755 78.549C136.373 78.9747 137.179 79.1875 138.175 79.1875C139.308 79.1875 140.207 78.9472 140.873 78.4666C141.546 77.9792 141.882 77.3956 141.882 76.7159C141.882 76.1667 141.69 75.7067 141.306 75.3359C140.921 74.9583 140.331 74.6768 139.534 74.4915L136.898 73.8736C135.449 73.5303 134.385 72.9982 133.705 72.2773C133.033 71.5496 132.696 70.6399 132.696 69.5483C132.696 68.6558 132.947 67.8662 133.448 67.1797C133.956 66.4931 134.646 65.9542 135.518 65.5629C136.397 65.1715 137.392 64.9759 138.504 64.9759C140.07 64.9759 141.299 65.3191 142.191 66.0057C143.091 66.6922 143.729 67.5985 144.107 68.7244Z" fill="black"/>
<path d="M122.655 81.3295C121.131 81.3295 119.816 80.9931 118.711 80.3203C117.613 79.6406 116.765 78.6932 116.167 77.478C115.577 76.2559 115.282 74.8348 115.282 73.2145C115.282 71.5942 115.577 70.1662 116.167 68.9304C116.765 67.6877 117.595 66.7197 118.66 66.0263C119.731 65.326 120.98 64.9759 122.408 64.9759C123.232 64.9759 124.046 65.1132 124.849 65.3878C125.652 65.6624 126.383 66.1087 127.042 66.7266C127.702 67.3376 128.227 68.1477 128.618 69.157C129.009 70.1662 129.205 71.4089 129.205 72.8849V73.9148H117.012V71.8139H126.733C126.733 70.9214 126.555 70.125 126.198 69.4247C125.848 68.7244 125.347 68.1718 124.694 67.7667C124.049 67.3616 123.287 67.1591 122.408 67.1591C121.44 67.1591 120.603 67.3994 119.895 67.88C119.195 68.3537 118.656 68.9716 118.279 69.7337C117.901 70.4957 117.712 71.3127 117.712 72.1847V73.5852C117.712 74.7798 117.918 75.7925 118.33 76.6232C118.749 77.4471 119.329 78.0753 120.07 78.5078C120.812 78.9335 121.674 79.1463 122.655 79.1463C123.294 79.1463 123.871 79.0571 124.385 78.8786C124.907 78.6932 125.357 78.4186 125.735 78.0547C126.112 77.6839 126.404 77.224 126.61 76.6747L128.958 77.3338C128.711 78.1302 128.295 78.8305 127.712 79.4347C127.128 80.032 126.407 80.4988 125.549 80.8352C124.691 81.1648 123.726 81.3295 122.655 81.3295Z" fill="black"/>
<path d="M102.018 81H95.5091V59.9091H102.306C104.352 59.9091 106.103 60.3313 107.558 61.1758C109.014 62.0134 110.129 63.2183 110.905 64.7905C111.681 66.3558 112.069 68.2301 112.069 70.4133C112.069 72.6103 111.677 74.5018 110.895 76.0877C110.112 77.6668 108.972 78.882 107.476 79.7333C105.979 80.5778 104.16 81 102.018 81ZM98.063 78.7344H101.853C103.597 78.7344 105.042 78.398 106.188 77.7251C107.335 77.0523 108.19 76.0946 108.753 74.8519C109.316 73.6093 109.597 72.1297 109.597 70.4133C109.597 68.7107 109.319 67.2449 108.763 66.016C108.207 64.7802 107.376 63.8327 106.271 63.1736C105.165 62.5077 103.789 62.1747 102.141 62.1747H98.063V78.7344Z" fill="black"/>
<path d="M70.0208 81V59.9091H82.7495V62.1747H72.5748V69.3011H82.0904V71.5668H72.5748V78.7344H82.9142V81H70.0208Z" fill="black"/>
<path d="M48.554 81V59.9091H51.108V69.3011H62.3537V59.9091H64.9077V81H62.3537V71.5668H51.108V81H48.554Z" fill="black"/>
</svg>
